<svg width="369" height="369" viewBox="0 0 369 369" fill="none" xmlns="http://www.w3.org/2000/svg">
<path d="M246.606 224.718C236.503 222.463 236.087 212.152 239.88 204.451C245.279 193.49 252.623 183.669 262.725 176.272C268.908 171.745 275.501 169.499 283.073 172.055C285.278 172.799 286.763 172.296 288.264 170.551C294.554 163.235 299.118 154.786 303.905 146.521C306.615 141.841 309.638 137.4 312.517 132.847C315.163 128.663 318.904 130.381 321.863 131.53C324.781 132.664 325.937 135.66 324.727 138.999C322.11 146.226 317.43 152.259 313.342 158.629C306.862 168.729 300.755 178.906 297.33 190.647C295.645 196.425 293.658 202.196 291.743 207.949C290.141 212.761 289.239 217.698 290.005 222.682C290.685 227.102 288.566 229.011 284.805 229.517C281.339 229.983 277.266 226.589 277.066 223.359C276.716 217.678 277.129 212.067 278.9 206.595C279.19 205.702 278.941 204.635 278.941 202.899C273.485 209.251 268.522 215.228 262.157 219.876C257.541 223.246 252.774 225.337 246.606 224.718Z" fill="#294C21"/>
<path d="M47.6283 240.636C44.9261 239.864 45.6158 237.906 45.6125 236.393C45.569 216.267 45.6435 196.14 45.5404 176.015C45.5252 173.045 46.3661 171.269 49.3972 172.189C52.3264 173.077 56.5395 169.404 58.2339 174.608C59.2893 174.259 60.3961 174.018 61.3923 173.544C75.0071 167.074 89.7858 175.457 91.841 190.578C92.9071 198.422 93.0886 205.941 89.2273 213.209C83.8869 223.261 72.0871 227.641 61.9237 222.656C58.4195 220.937 58.0357 221.844 58.1916 225.063C58.3522 228.38 57.8723 231.755 58.2878 235.026C58.8342 239.329 57.6328 241.34 53.0483 240.717C51.4145 240.494 49.7265 240.671 47.6283 240.636Z" fill="#294C21"/>
<path d="M216.668 219.662C209.631 225.094 202.269 226.251 194.462 222.781C191.081 221.277 190.557 222.439 190.689 225.526C190.86 229.515 190.631 233.521 190.754 237.515C190.827 239.892 189.9 240.586 187.562 240.73C178.023 241.317 178.026 241.401 178.025 231.929C178.023 221.103 178.773 210.207 177.783 199.472C177.024 191.251 178.575 183.229 177.993 175.126C177.813 172.63 178.873 171.666 181.164 172.128C184.525 172.805 188.401 170.293 191.35 173.976C192.045 174.844 193.521 173.733 194.517 173.209C207.913 166.158 223.65 177.257 224.725 192.108C225.216 198.88 225.829 205.669 222.551 212.102C221.109 214.931 219.39 217.426 216.668 219.662Z" fill="#294C21"/>
<path d="M161.116 173.938C169.673 177.722 171.859 184.909 172.383 192.945C172.961 201.817 172.871 201.831 164.168 201.844C156.023 201.856 147.877 201.846 139.727 201.846C139.93 211.315 146.426 216.442 153.764 213.094C154.801 212.621 156.245 212.013 156.551 211.136C158.378 205.893 162.545 206.357 166.763 206.471C172.124 206.615 172.813 207.559 170.447 212.59C166.596 220.779 155.932 225.571 147.825 224.553C130.761 222.412 125.29 211.346 125.864 194.593C126.573 173.915 148.061 166.433 161.116 173.938Z" fill="#294C21"/>
<path d="M104.884 223.293C103.281 223.243 102.107 223.178 100.955 223.308C97.9605 223.646 96.9764 222.562 97.0205 219.398C97.2222 204.929 97.2422 190.456 97.0742 175.987C97.0377 172.845 97.9814 171.591 100.973 172.117C104.378 172.715 108.248 170.412 111.276 173.741C111.419 173.899 112.65 173.131 113.332 172.724C115.552 171.398 117.958 171.02 120.51 171.057C123.458 171.099 125.325 171.992 124.934 175.432C124.747 177.074 124.87 178.755 124.893 180.418C124.924 182.675 124.208 183.508 121.618 183.368C113.438 182.925 110.692 185.78 110.695 194.022C110.698 202.006 110.397 210.005 110.796 217.969C111.019 222.423 109.641 224.085 104.884 223.293Z" fill="#294C21"/>
<path d="M233.295 158.18C234.22 154.573 235.328 151.418 235.874 148.167C236.525 144.291 238.586 142.541 242.351 143.161C246.76 143.886 250.591 148.426 249.477 151.772C246.86 159.633 244.802 167.591 243.532 175.792C242.888 179.95 239.424 181.902 235.552 180.952C230.373 179.682 228.759 177.645 229.73 172.962C230.731 168.136 232.05 163.377 233.295 158.18Z" fill="#294C21"/>
<path d="M256.001 202.15C262.423 192.862 269.349 184.688 280.333 181.134C272.528 193.109 263.686 204.086 251.345 213.569C252.095 208.571 254.23 205.634 256.001 202.15Z" fill="white"/>
<path d="M76.1341 184.806C81.5311 193.231 80.9758 201.681 76.9763 209.883C75.1769 213.573 71.1157 214.697 67.1405 213.828C63.3679 213.003 60.5799 211.132 59.5322 206.645C58.1403 200.683 57.6133 194.994 59.6354 189.132C62.2372 181.589 69.8522 179.384 76.1341 184.806Z" fill="white"/>
<path d="M204.443 181.97C208.252 182.951 210.033 185.602 210.976 188.611C212.901 194.755 212.986 201.045 211.003 207.216C209.653 211.415 206.61 214.06 202.162 213.948C197.989 213.844 194.337 212.517 192.437 207.934C190.286 202.743 190.205 197.515 191.246 192.271C192.799 184.447 195.872 180.789 204.443 181.97Z" fill="white"/>
<path d="M157.067 184.834C158.008 186.253 158.811 187.332 159.346 188.53C160.353 190.786 159.516 192.034 157.039 192.029C151.764 192.018 146.547 190.979 141.226 191.36C138.432 191.559 139.743 189.07 140.163 188.173C142.997 182.109 151.465 178.82 157.067 184.834Z" fill="white"/>
</svg>
