<svg width="280" height="111" viewBox="0 0 280 111" fill="none" xmlns="http://www.w3.org/2000/svg">
<path d="M201.07 94.5316C190.967 92.2771 190.551 81.9659 194.344 74.2652C199.743 63.3041 207.087 53.4829 217.188 46.0864C223.372 41.5588 229.965 39.3132 237.537 41.8687C239.742 42.613 241.227 42.1096 242.727 40.3646C249.017 33.0486 253.582 24.5996 258.369 16.3346C261.079 11.6554 264.102 7.21364 266.981 2.6613C269.627 -1.52283 273.368 0.195022 276.327 1.34439C279.245 2.47769 280.401 5.47417 279.191 8.81328C276.574 16.04 271.894 22.0725 267.806 28.4431C261.326 38.5428 255.219 48.7205 251.794 60.4613C250.109 66.2394 248.122 72.0102 246.207 77.7628C244.605 82.5754 243.703 87.5118 244.469 92.4957C245.149 96.9164 243.03 98.8248 239.269 99.3309C235.803 99.7974 231.729 96.4031 231.53 93.1734C231.179 87.4919 231.593 81.8815 233.364 76.4092C233.654 75.516 233.405 74.4487 233.405 72.7132C227.949 79.0651 222.986 85.0423 216.62 89.6897C212.004 93.06 207.238 95.1513 201.07 94.5316Z" fill="#294C21"/>
<path d="M2.09225 110.45C-0.609952 109.678 0.079716 107.72 0.076446 106.207C0.032909 86.0805 0.107403 65.9541 0.00435582 45.8286C-0.0108492 42.8594 0.830035 41.083 3.86109 42.0027C6.79029 42.8914 11.0034 39.2183 12.6978 44.4216C13.7532 44.0726 14.86 43.8317 15.8563 43.3582C29.471 36.8884 44.2497 45.2707 46.3049 60.3918C47.371 68.2357 47.5525 75.7549 43.6912 83.0228C38.3508 93.0746 26.551 97.4553 16.3876 92.4698C12.8834 90.7508 12.4996 91.6576 12.6555 94.8767C12.8161 98.1939 12.3363 101.569 12.7517 104.84C13.2981 109.143 12.0968 111.154 7.51226 110.531C5.87844 110.308 4.19042 110.485 2.09225 110.45Z" fill="#294C21"/>
<path d="M171.132 89.4763C164.095 94.9081 156.733 96.0651 148.926 92.5947C145.545 91.0913 145.021 92.2533 145.153 95.3396C145.324 99.3295 145.095 103.335 145.218 107.329C145.291 109.706 144.364 110.4 142.026 110.544C132.487 111.131 132.49 111.215 132.489 101.743C132.487 90.9167 133.237 80.0212 132.247 69.2862C131.488 61.0655 133.039 53.0432 132.457 44.9405C132.277 42.4436 133.337 41.48 135.628 41.9417C138.989 42.6189 142.865 40.1071 145.814 43.7896C146.509 44.6585 147.985 43.5469 148.981 43.0226C162.377 35.9721 178.114 47.0713 179.189 61.9215C179.68 68.6936 180.293 75.4829 177.015 81.9157C175.573 84.7448 173.854 87.2397 171.132 89.4763Z" fill="#294C21"/>
<path d="M115.58 43.7524C124.136 47.5362 126.323 54.7234 126.847 62.759C127.425 71.6307 127.335 71.6452 118.632 71.6579C110.486 71.6699 102.341 71.6605 94.1912 71.6605C94.3942 81.1291 100.89 86.2558 108.228 82.9079C109.265 82.435 110.709 81.8271 111.015 80.9505C112.842 75.7066 117.009 76.1711 121.227 76.2848C126.588 76.4294 127.277 77.3728 124.911 82.404C121.06 90.5931 110.396 95.3849 102.289 94.3674C85.2253 92.2256 79.7537 81.1596 80.3282 64.4069C81.0373 43.7293 102.524 36.2469 115.58 43.7524Z" fill="#294C21"/>
<path d="M59.3478 93.1072C57.7447 93.0574 56.5707 92.9919 55.4188 93.122C52.4244 93.4602 51.4403 92.3757 51.4844 89.2117C51.6861 74.7434 51.7061 60.2699 51.5381 45.8011C51.5016 42.6589 52.4453 41.4052 55.4372 41.9309C58.8421 42.5292 62.7123 40.2259 65.7398 43.5554C65.8832 43.713 67.1137 42.9453 67.7958 42.538C70.0158 41.2125 72.4221 40.8342 74.974 40.8708C77.9222 40.9131 79.7887 41.8061 79.3976 45.2456C79.2108 46.8883 79.334 48.569 79.357 50.232C79.3882 52.4889 78.6719 53.3219 76.0819 53.1818C67.9023 52.7393 65.1561 55.5944 65.159 63.8362C65.1618 71.8203 64.8608 79.8188 65.2597 87.7826C65.4828 92.237 64.1049 93.899 59.3478 93.1072Z" fill="#294C21"/>
<path d="M187.759 27.9935C188.684 24.3873 189.792 21.2316 190.338 17.9814C190.989 14.1053 193.05 12.3549 196.815 12.9745C201.224 13.7004 205.055 18.2397 203.941 21.5857C201.324 29.4473 199.266 37.4053 197.996 45.6061C197.352 49.764 193.888 51.7164 190.016 50.7665C184.837 49.496 183.223 47.4595 184.194 42.7761C185.195 37.9504 186.514 33.1908 187.759 27.9935Z" fill="#294C21"/>
<path d="M210.464 71.9635C216.887 62.676 223.813 54.5017 234.797 50.948C226.992 62.9231 218.15 73.9002 205.809 83.3828C206.559 78.3854 208.694 75.4478 210.464 71.9635Z" fill="white"/>
<path d="M30.598 54.6199C35.995 63.0447 35.4397 71.4949 31.4402 79.6966C29.6408 83.3867 25.5796 84.5108 21.6044 83.6416C17.8319 82.8168 15.0438 80.9462 13.9961 76.4587C12.6042 70.4966 12.0772 64.8085 14.0993 58.946C16.7011 51.403 24.3161 49.1978 30.598 54.6199Z" fill="white"/>
<path d="M158.907 51.7838C162.716 52.7648 164.497 55.4162 165.44 58.425C167.365 64.5694 167.45 70.8593 165.467 77.0299C164.117 81.2294 161.073 83.8737 156.626 83.7623C152.452 83.6577 148.801 82.3314 146.901 77.7477C144.75 72.5571 144.669 67.3287 145.71 62.0846C147.263 54.2609 150.336 50.6026 158.907 51.7838Z" fill="white"/>
<path d="M111.53 54.6476C112.472 56.0671 113.275 57.1459 113.81 58.3442C114.817 60.6004 113.98 61.8477 111.502 61.8426C106.228 61.8316 101.011 60.7932 95.6903 61.1735C92.8961 61.3732 94.2073 58.8845 94.6267 57.9872C97.461 51.9226 105.928 48.634 111.53 54.6476Z" fill="white"/>
</svg>
