<svg width="726" height="223" viewBox="0 0 726 223" fill="none" xmlns="http://www.w3.org/2000/svg">
<path d="M516.599 189.524C505.035 186.093 501.462 178.861 500.975 170.202C500.494 161.667 504.27 153.92 509.234 146.601C522.795 126.607 540.981 109.503 563.379 95.2138C571.238 90.1996 580.148 86.5124 590.183 84.8114C601.327 82.9224 612.098 84.2204 622.513 87.5455C624.554 88.1969 625.617 88.0233 627.087 86.7407C641.581 74.0931 652.766 59.6775 663.766 45.1412C673.43 32.3699 683.256 19.6723 693.159 7.01332C698.364 0.359854 704.288 -1.1329 713.367 2.11226C726.627 6.8518 728.309 11.2446 722.755 20.3309C717.403 29.0879 710.709 37.3734 704.118 45.6276C692.189 60.5667 679.124 74.944 668.553 90.5543C662.185 99.9577 658.279 110.077 653.708 120.01C647.088 134.398 640.618 148.825 636.334 163.782C633.977 172.01 632.356 180.207 634.21 188.734C635.939 196.686 628.746 201.695 618.191 200.378C615.944 200.098 613.717 199.533 611.593 198.876C605.187 196.894 602.277 193.184 602.038 187.738C601.399 173.189 604.98 159.247 611.11 145.615C611.808 144.064 612.334 142.465 612.915 140.882C612.957 140.77 612.803 140.613 612.585 140.14C611.542 140.935 610.57 141.586 609.731 142.329C599.078 151.771 588.768 161.465 577.7 170.597C569.47 177.388 560.445 183.68 549.246 187.498C538.782 191.066 527.997 192.482 516.599 189.524ZM588.108 109.545C571.534 119.302 557.5 130.952 546.75 144.827C541.608 151.465 537.538 158.616 533.133 165.594C532.641 166.372 532.659 167.968 533.302 168.401C534.015 168.883 536.002 168.83 536.94 168.379C541.487 166.193 546.383 164.226 550.224 161.404C572.306 145.183 591.642 127.042 609.82 108.127C610.992 106.908 611.746 105.358 612.282 103.871C612.923 102.089 611.256 100.674 608.924 101.031C606.696 101.372 604.38 101.838 602.423 102.696C597.666 104.781 593.095 107.125 588.108 109.545Z" fill="#F5A623"/>
<path d="M345.046 179.752C345.046 148.461 345.046 117.396 345.046 86.1501C355.387 86.1501 365.475 86.1501 375.824 86.1501C375.824 88.8212 375.824 91.4216 375.824 93.9848C376.249 94.0521 376.513 94.1446 376.568 94.0953C382.953 88.2995 391.373 85.7404 400.787 84.9071C417.416 83.4348 432.682 85.8097 445.283 95.1092C452.169 100.191 457.258 106.289 460.257 113.285C467.753 130.77 467.931 148.309 458.656 165.388C449.316 182.587 429.617 191.563 405.749 190.178C401.193 189.913 396.613 189.349 392.183 188.486C389.174 187.9 386.241 186.762 383.577 185.484C380.945 184.222 378.693 182.474 375.941 180.727C375.941 194.87 375.941 208.844 375.941 222.946C365.544 222.946 355.518 222.946 345.046 222.946C345.046 208.593 345.046 194.285 345.046 179.752ZM429.446 159.142C434.19 150.674 434.785 141.737 434.269 132.684C433.872 125.722 432.27 118.986 427.764 112.852C424.579 108.514 420.034 105.462 413.809 104.077C398.219 100.606 384.824 106.057 379.634 118.394C374.464 130.685 374.423 143.189 379.059 155.588C381.388 161.818 385.702 167.163 393.864 169.679C404.812 173.055 421.735 172.532 429.446 159.142Z" fill="#F5A523"/>
<path d="M0.450562 197.322C0.450562 160.185 0.450562 123.273 0.450562 86.1651C10.7577 86.1651 20.8431 86.1651 31.2729 86.1651C31.2729 88.7598 31.2729 91.3397 31.2729 93.9109C31.7843 93.9109 32.0358 93.9685 32.1105 93.9028C39.4297 87.4663 49.0417 85.2314 59.5816 84.6572C76.3058 83.7463 91.0974 87.0574 102.852 96.8756C111.694 104.261 116.855 113.117 119.057 123.008C122.152 136.908 121.692 150.656 114.887 163.933C105.724 181.81 85.752 191.477 61.1566 190.247C54.2034 189.899 47.3646 189.216 41.2359 186.509C37.8046 184.994 34.7663 182.932 31.4313 181.049C31.4313 194.834 31.4313 208.742 31.4313 222.863C21.0644 222.863 10.9783 222.863 0.450562 222.863C0.450562 214.448 0.450562 205.998 0.450562 197.322ZM31.4263 132.773C31.3947 135.324 31.2814 137.877 31.3474 140.427C31.5214 147.159 32.8416 153.712 36.5718 159.863C41.3773 167.787 49.685 171.333 60.5763 171.375C71.3108 171.416 79.3553 167.79 84.1594 160.116C89.34 151.841 90.0812 142.963 89.735 133.981C89.4704 127.114 88.0872 120.411 84.0508 114.174C79.4551 107.072 72.028 103.466 61.9877 103.188C51.4663 102.898 43.1288 105.95 37.8444 113.363C33.639 119.263 32.1393 125.722 31.4263 132.773Z" fill="#F5A523"/>
<path d="M209.278 141.834C208.731 130.844 210.302 120.35 216.002 110.401C224.454 95.6493 239.264 87.5429 259.393 85.1894C270.798 83.8559 282.198 84.1036 293.18 87.1135C313.295 92.6266 324.279 104.174 326.948 120.4C328.249 128.31 327.945 136.383 328.381 144.627C298.676 144.627 269.673 144.627 240.311 144.627C240.779 149.754 242.345 154.369 244.915 158.822C253.209 173.195 276.507 174.366 287.402 166.702C290.99 164.178 293.45 161.136 295.168 157.646C295.488 156.995 296.378 156.039 297.018 156.033C306.872 155.93 316.729 155.961 327.119 155.961C326.387 158.081 325.887 159.952 325.1 161.746C318.048 177.817 298.769 189.148 277.073 190.153C266.528 190.641 256.203 189.975 246.241 187.083C226.625 181.388 216.176 169.657 211.556 154.28C210.355 150.285 210.016 146.132 209.278 141.834ZM293.118 112.494C287.929 105.529 279.914 102.936 269.953 103.152C254.957 103.478 241.333 114.389 241.596 126.075C260.21 126.075 278.826 126.075 297.558 126.075C297.258 121.324 296.118 116.897 293.118 112.494Z" fill="#F5A523"/>
<path d="M135.643 160.38C135.643 135.555 135.643 110.954 135.643 86.0866C146.044 86.0866 156.217 86.0866 166.721 86.0866C166.721 88.7284 166.721 91.3728 166.721 94.5745C167.723 93.6244 168.289 93.1601 168.751 92.6388C174.413 86.2415 182.75 84.356 192.055 84.3687C195.466 84.3734 198.895 84.8699 202.274 85.3305C203.034 85.434 204.187 86.3184 204.198 86.8553C204.331 93.434 204.285 100.015 204.285 106.247C199.685 106.247 195.606 106.281 191.529 106.24C180.341 106.127 172.875 110.821 167.249 117.812C166.7 118.493 166.735 119.53 166.734 120.402C166.708 141.938 166.713 163.474 166.713 185.01C166.713 185.891 166.713 186.772 166.713 187.794C156.3 187.794 146.19 187.794 135.643 187.794C135.643 178.705 135.643 169.655 135.643 160.38Z" fill="#F5A623"/>
<path d="M524.476 52.3382C520.614 65.4307 516.709 78.3308 513.037 91.2713C510.243 101.117 503.508 104.279 491.27 101.166C489.637 100.75 488.027 100.245 486.485 99.6565C479.526 96.9996 477.337 93.1678 479.26 87.3215C483.864 73.3243 488.471 59.3274 492.988 45.313C493.9 42.4843 494.297 39.555 495.168 36.7166C495.744 34.8416 496.446 32.9203 497.611 31.2405C500.248 27.4378 505.595 25.7447 510.843 27.0401C516.599 28.4604 521.586 30.9722 525.689 34.4495C528.2 36.5782 528.96 39.2568 528.167 42.0067C527.179 45.4317 525.765 48.7811 524.476 52.3382Z" fill="#F5A523"/>
<path d="M588.278 109.455C593.095 107.125 597.666 104.781 602.423 102.696C604.38 101.838 606.696 101.372 608.924 101.031C611.256 100.674 612.923 102.089 612.282 103.871C611.746 105.358 610.992 106.908 609.82 108.127C591.642 127.042 572.306 145.183 550.224 161.404C546.383 164.226 541.487 166.193 536.94 168.379C536.002 168.83 534.015 168.883 533.302 168.401C532.659 167.968 532.641 166.372 533.133 165.594C537.538 158.616 541.608 151.465 546.75 144.827C557.5 130.952 571.534 119.302 588.278 109.455Z" fill="#2B4D21"/>
<path d="M429.35 159.295C421.735 172.532 404.812 173.055 393.864 169.679C385.702 167.163 381.388 161.818 379.059 155.588C374.424 143.189 374.464 130.685 379.634 118.394C384.824 106.057 398.219 100.606 413.809 104.077C420.034 105.462 424.579 108.514 427.764 112.852C432.27 118.986 433.872 125.722 434.269 132.684C434.785 141.737 434.19 150.674 429.35 159.295Z" fill="#2A4C21"/>
<path d="M31.4311 132.56C32.1393 125.722 33.639 119.263 37.8444 113.363C43.1288 105.95 51.4663 102.898 61.9877 103.188C72.028 103.466 79.4551 107.072 84.0508 114.174C88.0872 120.411 89.4703 127.114 89.735 133.981C90.0811 142.963 89.34 151.841 84.1594 160.116C79.3553 167.79 71.3108 171.416 60.5763 171.375C49.685 171.333 41.3773 167.787 36.5718 159.863C32.8416 153.712 31.5214 147.159 31.3474 140.427C31.2814 137.877 31.3947 135.324 31.4311 132.56Z" fill="#2A4C21"/>
<path d="M293.219 112.641C296.118 116.897 297.258 121.324 297.558 126.075C278.826 126.075 260.21 126.075 241.596 126.075C241.333 114.389 254.957 103.478 269.953 103.152C279.914 102.936 287.929 105.529 293.219 112.641Z" fill="#2A4C21"/>
</svg>
