<svg width="129" height="51" viewBox="0 0 129 51" fill="none" xmlns="http://www.w3.org/2000/svg">
<path d="M91.5409 42.9507C89.5001 42.1797 88.8695 40.5543 88.7835 38.6085C88.6987 36.6903 89.365 34.9493 90.2411 33.3044C92.6344 28.811 95.844 24.9672 99.7966 21.7559C101.184 20.629 102.756 19.8004 104.527 19.4181C106.494 18.9936 108.395 19.2853 110.233 20.0326C110.593 20.179 110.781 20.14 111.04 19.8517C113.598 17.0094 115.572 13.7697 117.513 10.5028C119.219 7.63268 120.953 4.77909 122.7 1.93417C123.619 0.438907 124.664 0.103432 126.267 0.832734C128.607 1.89787 128.904 2.88509 127.924 4.92711C126.979 6.8951 125.798 8.75715 124.634 10.6122C122.529 13.9695 120.224 17.2006 118.358 20.7088C117.234 22.822 116.545 25.0963 115.738 27.3286C114.57 30.562 113.428 33.8041 112.672 37.1655C112.256 39.0147 111.97 40.857 112.297 42.7731C112.602 44.5603 111.333 45.6859 109.47 45.39C109.073 45.327 108.68 45.2001 108.306 45.0524C107.175 44.6071 106.661 43.7733 106.619 42.5493C106.507 39.2796 107.138 36.1464 108.22 33.0828C108.344 32.7342 108.436 32.3748 108.539 32.0192C108.546 31.9939 108.519 31.9588 108.481 31.8524C108.297 32.0311 108.125 32.1773 107.977 32.3444C106.097 34.4662 104.277 36.645 102.324 38.6972C100.872 40.2234 99.279 41.6374 97.3026 42.4955C95.4558 43.2974 93.5524 43.6155 91.5409 42.9507ZM104.161 24.9766C101.236 27.1694 98.7592 29.7876 96.8621 32.9058C95.9545 34.3975 95.2362 36.0047 94.4588 37.5727C94.372 37.7478 94.3752 38.1063 94.4886 38.2037C94.6146 38.3119 94.9651 38.3 95.1307 38.1986C95.9333 37.7075 96.7972 37.2653 97.4751 36.6311C101.372 32.9859 104.785 28.9088 107.993 24.658C108.199 24.384 108.332 24.0357 108.427 23.7014C108.54 23.3011 108.246 22.9831 107.835 23.0633C107.441 23.1399 107.033 23.2445 106.687 23.4374C105.848 23.9059 105.041 24.4329 104.161 24.9766Z" fill="#F5A623"/>
<path d="M61.2651 40.7547C61.2651 33.7225 61.2651 26.741 61.2651 19.719C63.0902 19.719 64.8704 19.719 66.6968 19.719C66.6968 20.3193 66.6968 20.9037 66.6968 21.4797C66.7718 21.4948 66.8185 21.5156 66.8281 21.5045C67.9549 20.202 69.441 19.6269 71.1023 19.4396C74.0371 19.1088 76.7312 19.6425 78.9551 21.7324C80.1703 22.8744 81.0684 24.2449 81.5977 25.8171C82.9205 29.7467 82.952 33.6882 81.3151 37.5266C79.6668 41.3918 76.1903 43.4089 71.9781 43.0977C71.174 43.0382 70.3658 42.9113 69.5839 42.7174C69.0528 42.5857 68.5353 42.33 68.0651 42.0429C67.6006 41.7592 67.2031 41.3663 66.7175 40.9738C66.7175 44.1521 66.7175 47.2925 66.7175 50.4618C64.8827 50.4618 63.1131 50.4618 61.2651 50.4618C61.2651 47.2362 61.2651 44.0208 61.2651 40.7547ZM76.1601 36.1229C76.9974 34.2197 77.1023 32.2113 77.0113 30.1768C76.9413 28.6122 76.6584 27.0984 75.8634 25.7198C75.3012 24.7449 74.499 24.0591 73.4005 23.7477C70.6492 22.9678 68.2853 24.1928 67.3693 26.9652C66.4568 29.7275 66.4497 32.5376 67.2678 35.324C67.6788 36.7243 68.4401 37.9254 69.8805 38.4909C71.8127 39.2495 74.7993 39.1321 76.1601 36.1229Z" fill="#F5A523"/>
<path d="M0.450562 44.7033C0.450562 36.3572 0.450562 28.0618 0.450562 19.7224C2.26957 19.7224 4.04946 19.7224 5.89012 19.7224C5.89012 20.3055 5.89012 20.8853 5.89012 21.4631C5.98038 21.4631 6.02476 21.4761 6.03795 21.4613C7.32963 20.0148 9.02597 19.5125 10.8861 19.3835C13.8376 19.1788 16.448 19.9229 18.5225 22.1294C20.0829 23.7892 20.9938 25.7795 21.3824 28.0022C21.9286 31.1261 21.8473 34.2157 20.6463 37.1996C19.0293 41.2172 15.5046 43.3895 11.164 43.1132C9.93692 43.0351 8.72999 42.8816 7.6484 42.2732C7.04284 41.9326 6.50663 41.4693 5.91808 41.0462C5.91808 44.144 5.91808 47.2697 5.91808 50.4433C4.08851 50.4433 2.3085 50.4433 0.450562 50.4433C0.450562 48.5521 0.450562 46.653 0.450562 44.7033ZM5.91719 30.1968C5.91162 30.7702 5.89163 31.3439 5.90326 31.9169C5.93397 33.4297 6.16697 34.9025 6.82527 36.2848C7.67336 38.0656 9.13951 38.8626 11.0616 38.872C12.956 38.8813 14.3757 38.0662 15.2236 36.3417C16.1379 34.4821 16.2687 32.4869 16.2076 30.4682C16.1609 28.925 15.9168 27.4186 15.2044 26.0169C14.3934 24.4208 13.0826 23.6104 11.3107 23.5481C9.45387 23.4828 7.98246 24.1686 7.04987 25.8347C6.3077 27.1606 6.04303 28.6122 5.91719 30.1968Z" fill="#F5A523"/>
<path d="M37.3046 32.2332C37.2081 29.7632 37.4852 27.405 38.4913 25.1689C39.9828 21.8538 42.5965 20.032 46.149 19.5031C48.1617 19.2034 50.1737 19.259 52.1118 19.9355C55.6617 21.1745 57.6001 23.7696 58.0711 27.4161C58.3008 29.1938 58.2471 31.008 58.324 32.8607C53.0816 32.8607 47.9631 32.8607 42.7814 32.8607C42.864 34.013 43.1403 35.05 43.5938 36.0509C45.0576 39.2809 49.1692 39.5442 51.0921 37.8218C51.7252 37.2546 52.1594 36.571 52.4625 35.7865C52.519 35.6402 52.676 35.4255 52.7891 35.4241C54.5282 35.4009 56.2676 35.4079 58.1013 35.4079C57.9722 35.8844 57.8839 36.3049 57.745 36.708C56.5005 40.3197 53.098 42.8661 49.2692 43.092C47.4081 43.2018 45.5859 43.052 43.8279 42.4021C40.366 41.1223 38.5219 38.486 37.7066 35.0302C37.4947 34.1324 37.4349 33.199 37.3046 32.2332ZM52.1008 25.6393C51.185 24.074 49.7706 23.4913 48.0126 23.5399C45.366 23.6131 42.9618 26.0651 43.0082 28.6915C46.2931 28.6915 49.5785 28.6915 52.8844 28.6915C52.8314 27.6237 52.6303 26.6288 52.1008 25.6393Z" fill="#F5A523"/>
<path d="M24.3094 36.4011C24.3094 30.8219 24.3094 25.2934 24.3094 19.7047C26.145 19.7047 27.9404 19.7047 29.7941 19.7047C29.7941 20.2984 29.7941 20.8927 29.7941 21.6122C29.9709 21.3987 30.0709 21.2944 30.1523 21.1772C31.1517 19.7395 32.623 19.3158 34.265 19.3186C34.8672 19.3197 35.4723 19.4313 36.0686 19.5348C36.2028 19.5581 36.4063 19.7568 36.4082 19.8775C36.4316 21.3559 36.4234 22.8349 36.4234 24.2354C35.6117 24.2354 34.8919 24.2432 34.1723 24.2339C32.1978 24.2084 30.8803 25.2634 29.8872 26.8345C29.7905 26.9875 29.7966 27.2206 29.7964 27.4165C29.7918 32.2565 29.7928 37.0964 29.7928 41.9363C29.7928 42.1343 29.7928 42.3323 29.7928 42.562C27.9551 42.562 26.1708 42.562 24.3094 42.562C24.3094 40.5194 24.3094 38.4855 24.3094 36.4011Z" fill="#F5A623"/>
<path d="M92.9311 12.1203C92.2495 15.0626 91.5604 17.9617 90.9123 20.8699C90.4192 23.0826 89.2306 23.7932 87.0708 23.0935C86.7827 23.0002 86.4985 22.8867 86.2263 22.7544C84.9982 22.1572 84.6118 21.2961 84.9512 19.9822C85.7638 16.8366 86.5768 13.691 87.374 10.5414C87.5349 9.90574 87.605 9.24742 87.7588 8.60954C87.8603 8.18815 87.9843 7.75637 88.1898 7.37887C88.6552 6.52427 89.5989 6.14377 90.5251 6.43489C91.5408 6.75409 92.421 7.31858 93.1451 8.10005C93.5883 8.57844 93.7224 9.18041 93.5824 9.79842C93.4082 10.5681 93.1585 11.3208 92.9311 12.1203Z" fill="#F5A523"/>
<path d="M104.191 24.9565C105.041 24.4329 105.848 23.9059 106.687 23.4374C107.033 23.2445 107.441 23.1399 107.835 23.0633C108.246 22.9831 108.54 23.3011 108.427 23.7014C108.333 24.0357 108.2 24.384 107.993 24.6581C104.785 28.9088 101.372 32.9859 97.4752 36.6311C96.7973 37.2653 95.9333 37.7075 95.1308 38.1986C94.9652 38.3 94.6147 38.3119 94.4887 38.2037C94.3752 38.1063 94.3721 37.7478 94.4589 37.5727C95.2363 36.0047 95.9546 34.3975 96.8621 32.9058C98.7592 29.7876 101.236 27.1694 104.191 24.9565Z" fill="#2B4D21"/>
<path d="M76.1431 36.1571C74.7992 39.132 71.8126 39.2495 69.8804 38.4909C68.44 37.9254 67.6787 36.7243 67.2677 35.324C66.4496 32.5376 66.4567 29.7275 67.3692 26.9652C68.2852 24.1928 70.6491 22.9678 73.4004 23.7477C74.4989 24.0591 75.3011 24.7449 75.8633 25.7197C76.6583 27.0984 76.9412 28.6122 77.0112 30.1768C77.1022 32.2113 76.9973 34.2197 76.1431 36.1571Z" fill="#2A4C21"/>
<path d="M5.91812 30.1488C6.04311 28.6122 6.30778 27.1606 7.04995 25.8347C7.98255 24.1686 9.45396 23.4828 11.3108 23.5481C13.0827 23.6104 14.3935 24.4208 15.2045 26.0169C15.9168 27.4186 16.1609 28.925 16.2077 30.4682C16.2687 32.4869 16.1379 34.4821 15.2237 36.3417C14.3758 38.0662 12.9561 38.8813 11.0617 38.872C9.1396 38.8626 7.67345 38.0656 6.82536 36.2848C6.16705 34.9025 5.93406 33.4297 5.90335 31.9169C5.89171 31.3439 5.9117 30.7702 5.91812 30.1488Z" fill="#2A4C21"/>
<path d="M52.1187 25.6725C52.6303 26.6288 52.8315 27.6237 52.8844 28.6915C49.5785 28.6915 46.2932 28.6915 43.0082 28.6915C42.9618 26.0652 45.3661 23.6131 48.0127 23.54C49.7706 23.4914 51.185 24.074 52.1187 25.6725Z" fill="#2A4C21"/>
</svg>
