<svg width="687" height="272" viewBox="0 0 687 272" fill="none" xmlns="http://www.w3.org/2000/svg">
<g clip-path="url(#clip0_150_268)">
<path d="M145.429 228.155C141.5 228.033 138.623 227.872 135.801 228.191C128.463 229.02 126.052 226.362 126.16 218.609C126.654 183.155 126.703 147.688 126.291 112.233C126.202 104.533 128.514 101.461 135.846 102.75C144.189 104.216 153.673 98.5715 161.092 106.73C161.443 107.116 164.459 105.235 166.13 104.237C171.57 100.989 177.466 100.062 183.72 100.152C190.944 100.255 195.518 102.444 194.56 110.872C194.102 114.897 194.404 119.016 194.46 123.091C194.537 128.621 192.781 130.663 186.435 130.319C166.391 129.235 159.662 136.231 159.669 156.427C159.675 175.992 158.938 195.592 159.915 215.107C160.462 226.022 157.086 230.095 145.429 228.155Z" fill="#294C21"/>
<path d="M460.094 68.5968C462.361 59.7599 465.076 52.0271 466.414 44.0626C468.009 34.5644 473.059 30.2751 482.285 31.7934C493.089 33.5722 502.477 44.6955 499.747 52.8948C493.334 72.1592 488.291 91.6599 485.179 111.756C483.601 121.944 475.113 126.729 465.625 124.401C452.934 121.288 448.979 116.297 451.358 104.821C453.811 92.9956 457.043 81.3325 460.094 68.5968Z" fill="#294C21"/>
<path fill-rule="evenodd" clip-rule="evenodd" d="M476.23 181.983C466.935 200.853 467.955 226.12 492.712 231.645C507.826 233.164 519.505 228.039 530.816 219.78C545.429 209.113 557.025 195.586 569.422 181.123C570.26 180.146 571.101 179.165 571.947 178.18C571.947 179.68 572.023 180.976 572.09 182.122C572.213 184.225 572.307 185.82 571.847 187.237C567.507 200.647 566.492 214.395 567.352 228.317C567.84 236.231 577.823 244.549 586.316 243.405C595.533 242.165 600.725 237.489 599.059 226.656C597.182 214.443 599.392 202.347 603.318 190.554C604.153 188.045 604.993 185.535 605.835 183.024C609.72 171.424 613.614 159.797 617.008 148.157C625.401 119.387 640.366 94.4472 656.245 69.6984C658.472 66.2277 660.771 62.7979 663.07 59.3678C671.112 47.3699 679.156 35.3681 684.143 21.5965C687.108 13.4142 684.276 6.07146 677.125 3.29436C676.794 3.16588 676.46 3.03449 676.121 2.90171C669.044 0.123921 660.411 -3.26388 654.223 6.52139C651.994 10.0462 649.73 13.5439 647.466 17.0414C642.564 24.6131 637.662 32.184 633.12 40.0271C631.698 42.4821 630.284 44.9438 628.87 47.4063C618.616 65.2586 608.335 83.1571 594.79 98.9115C591.114 103.187 587.476 104.421 582.072 102.597C563.518 96.335 547.362 101.838 532.208 112.932C507.456 131.057 489.46 155.124 476.23 181.983ZM575.359 124.846C548.443 133.554 531.471 153.584 515.732 176.343C514.825 178.128 513.879 179.855 512.933 181.582C509.355 188.112 505.778 194.64 504.325 204.325C534.566 181.089 556.233 154.19 575.359 124.846Z" fill="#294C21"/>
<path fill-rule="evenodd" clip-rule="evenodd" d="M0.0961959 262.181C-0.137098 265.481 -0.391231 269.076 5.12696 270.652C6.95736 270.683 8.66039 270.647 10.2754 270.614C13.1968 270.553 15.8301 270.499 18.4084 270.851C29.6426 272.377 32.5863 267.45 31.2474 256.905C30.6542 252.234 30.806 247.476 30.958 242.711C31.0669 239.299 31.1759 235.882 31.0117 232.491C30.6297 224.602 31.5701 222.38 40.157 226.593C65.0619 238.809 93.9767 228.075 107.063 203.443C116.525 185.634 116.08 167.208 113.468 147.987C108.432 110.934 72.2172 90.3932 38.8551 106.247C37.1884 107.039 35.3955 107.566 33.6026 108.092C32.7693 108.337 31.936 108.582 31.1153 108.853C28.3732 100.432 22.9391 101.499 17.4971 102.566C14.699 103.116 11.8988 103.665 9.46141 102.926C2.03396 100.672 -0.0265853 105.025 0.0106738 112.301C0.16235 141.924 0.157057 171.547 0.151763 201.171C0.148244 220.866 0.144725 240.56 0.187327 260.255C0.188663 260.873 0.142846 261.521 0.0961959 262.181ZM77.0423 195.293C86.8429 175.195 88.2036 154.488 74.9785 133.843C59.585 120.557 40.9249 125.961 34.5493 144.444C29.5942 158.81 30.8856 172.748 34.2964 187.358C36.8637 198.355 43.6958 202.938 52.9402 204.96C62.6812 207.09 72.633 204.335 77.0423 195.293Z" fill="#294C21"/>
<path fill-rule="evenodd" clip-rule="evenodd" d="M364.936 226.899C384.066 235.403 402.107 232.568 419.351 219.257C426.021 213.777 430.233 207.663 433.767 200.73C441.556 185.445 440.379 169.338 439.204 153.244C439.167 152.741 439.13 152.238 439.094 151.736C436.46 115.346 397.897 88.1479 365.071 105.425C364.66 105.641 364.215 105.898 363.752 106.166C361.466 107.489 358.726 109.075 357.31 107.304C352.537 101.344 346.774 102.006 341.037 102.664C338.088 103.002 335.146 103.34 332.35 102.776C326.736 101.645 324.138 104.006 324.579 110.124C325.263 119.644 324.745 129.117 324.226 138.621C323.662 148.941 323.097 159.296 324.065 169.782C325.759 188.15 325.374 206.709 324.989 225.268C324.823 233.289 324.656 241.311 324.658 249.316C324.659 260.853 324.658 266.605 327.527 269.295C330.43 272.018 336.272 271.606 348.028 270.883C353.757 270.53 356.028 268.829 355.85 263.004C355.708 258.423 355.756 253.836 355.804 249.249C355.859 244.037 355.913 238.825 355.69 233.625C355.367 226.062 356.651 223.215 364.936 226.899ZM405.403 143.168C403.092 135.795 398.728 129.298 389.394 126.894C368.391 123.999 360.861 132.964 357.055 152.135C354.504 164.986 354.703 177.798 359.974 190.517C364.63 201.749 373.576 204.999 383.804 205.255C394.701 205.528 402.161 199.049 405.469 188.758C410.328 173.637 410.12 158.224 405.403 143.168Z" fill="#294C21"/>
<path fill-rule="evenodd" clip-rule="evenodd" d="M310.832 153.788C309.548 134.097 304.189 116.485 283.223 107.213C251.23 88.8213 198.578 107.157 196.84 157.826C195.433 198.878 208.84 225.994 250.654 231.243C270.52 233.736 296.652 221.994 306.088 201.927C311.886 189.598 310.198 187.286 297.061 186.932C296.452 186.916 295.844 186.896 295.238 186.877C285.542 186.568 276.25 186.272 272.037 198.365C271.331 200.386 268.158 201.824 265.669 202.952C265.512 203.023 265.358 203.093 265.207 203.162C247.226 211.366 231.308 198.803 230.811 175.601C236.906 175.601 243 175.603 249.093 175.605C262.964 175.61 276.833 175.615 290.702 175.594C312.028 175.563 312.249 175.528 310.832 153.788ZM274.693 135.984C274.245 135.323 273.779 134.635 273.299 133.911C259.571 119.175 238.823 127.234 231.878 142.095C231.831 142.196 231.779 142.306 231.723 142.423C230.575 144.842 227.953 150.369 234.484 149.903C242.051 149.362 249.532 149.992 257.004 150.621C262.408 151.076 267.807 151.531 273.23 151.542C279.302 151.555 281.353 148.498 278.886 142.97C277.848 140.644 276.397 138.502 274.693 135.984Z" fill="#294C21"/>
</g>
<defs>
<clipPath id="clip0_150_268">
<rect width="686.126" height="272" fill="white"/>
</clipPath>
</defs>
</svg>
