<svg width="129" height="51" viewBox="0 0 129 51" fill="none" xmlns="http://www.w3.org/2000/svg">
<g clip-path="url(#clip0_19_142)">
<path d="M91.5408 42.9508C89.5 42.1798 88.8694 40.5544 88.7834 38.6086C88.6986 36.6904 89.3649 34.9494 90.241 33.3045C92.6343 28.8111 95.8439 24.9673 99.7965 21.756C101.184 20.6291 102.756 19.8005 104.527 19.4182C106.494 18.9937 108.395 19.2854 110.233 20.0327C110.593 20.1791 110.781 20.1401 111.04 19.8518C113.598 17.0095 115.572 13.7698 117.513 10.5029C119.219 7.63277 120.953 4.77918 122.7 1.93426C123.619 0.438999 124.664 0.103524 126.267 0.832826C128.607 1.89796 128.904 2.88518 127.924 4.9272C126.979 6.89519 125.798 8.75724 124.634 10.6123C122.529 13.9696 120.224 17.2007 118.358 20.7089C117.234 22.8221 116.545 25.0964 115.738 27.3287C114.57 30.5621 113.428 33.8042 112.672 37.1656C112.256 39.0148 111.97 40.8571 112.297 42.7732C112.602 44.5604 111.333 45.686 109.47 45.3901C109.073 45.3271 108.68 45.2002 108.306 45.0525C107.175 44.6072 106.661 43.7734 106.619 42.5494C106.507 39.2797 107.138 36.1465 108.22 33.0829C108.344 32.7343 108.436 32.3749 108.539 32.0193C108.546 31.994 108.519 31.9589 108.481 31.8525C108.297 32.0312 108.125 32.1774 107.977 32.3445C106.097 34.4663 104.277 36.6451 102.324 38.6973C100.872 40.2235 99.2789 41.6375 97.3025 42.4956C95.4557 43.2975 93.5523 43.6156 91.5408 42.9508ZM104.161 24.9767C101.236 27.1695 98.7591 29.7877 96.862 32.9059C95.9544 34.3976 95.2361 36.0048 94.4587 37.5728C94.3719 37.7479 94.3751 38.1064 94.4885 38.2038C94.6145 38.312 94.965 38.3001 95.1306 38.1987C95.9332 37.7076 96.7971 37.2654 97.475 36.6312C101.372 32.986 104.785 28.9089 107.993 24.6581C108.199 24.3841 108.332 24.0358 108.427 23.7015C108.54 23.3012 108.246 22.9832 107.835 23.0634C107.441 23.14 107.033 23.2446 106.687 23.4375C105.848 23.906 105.041 24.433 104.161 24.9767Z" fill="#F5A623"/>
<path d="M61.2651 40.7548C61.2651 33.7226 61.2651 26.7411 61.2651 19.7191C63.0902 19.7191 64.8704 19.7191 66.6968 19.7191C66.6968 20.3194 66.6968 20.9038 66.6968 21.4798C66.7718 21.4949 66.8185 21.5157 66.8281 21.5046C67.9549 20.2021 69.441 19.627 71.1023 19.4397C74.0371 19.1089 76.7312 19.6426 78.9551 21.7325C80.1703 22.8745 81.0684 24.245 81.5977 25.8172C82.9205 29.7468 82.952 33.6883 81.3151 37.5267C79.6668 41.3919 76.1903 43.409 71.9781 43.0978C71.174 43.0383 70.3658 42.9114 69.5839 42.7175C69.0528 42.5858 68.5353 42.3301 68.0651 42.043C67.6006 41.7593 67.2031 41.3664 66.7175 40.9739C66.7175 44.1522 66.7175 47.2926 66.7175 50.4619C64.8827 50.4619 63.1131 50.4619 61.2651 50.4619C61.2651 47.2363 61.2651 44.0209 61.2651 40.7548ZM76.1601 36.123C76.9974 34.2198 77.1023 32.2114 77.0113 30.1769C76.9413 28.6123 76.6584 27.0985 75.8634 25.7199C75.3012 24.745 74.499 24.0592 73.4005 23.7478C70.6492 22.9679 68.2853 24.1929 67.3693 26.9653C66.4568 29.7276 66.4497 32.5377 67.2678 35.3241C67.6788 36.7244 68.4401 37.9255 69.8805 38.491C71.8127 39.2496 74.7993 39.1322 76.1601 36.123Z" fill="#F5A523"/>
<path d="M0.450684 44.7034C0.450684 36.3573 0.450684 28.0619 0.450684 19.7225C2.26969 19.7225 4.04958 19.7225 5.89024 19.7225C5.89024 20.3056 5.89024 20.8854 5.89024 21.4632C5.9805 21.4632 6.02488 21.4762 6.03807 21.4614C7.32975 20.0149 9.02609 19.5126 10.8862 19.3836C13.8377 19.1789 16.4481 19.923 18.5226 22.1295C20.083 23.7893 20.9939 25.7796 21.3825 28.0023C21.9287 31.1262 21.8474 34.2158 20.6464 37.1997C19.0294 41.2173 15.5047 43.3896 11.1641 43.1133C9.93704 43.0352 8.73011 42.8817 7.64852 42.2733C7.04296 41.9327 6.50675 41.4694 5.9182 41.0463C5.9182 44.1441 5.9182 47.2698 5.9182 50.4434C4.08863 50.4434 2.30862 50.4434 0.450684 50.4434C0.450684 48.5522 0.450684 46.6531 0.450684 44.7034ZM5.91731 30.1969C5.91174 30.7703 5.89175 31.344 5.90338 31.917C5.93409 33.4298 6.16709 34.9026 6.82539 36.2849C7.67348 38.0657 9.13963 38.8627 11.0617 38.8721C12.9561 38.8814 14.3758 38.0663 15.2237 36.3418C16.138 34.4822 16.2688 32.487 16.2077 30.4683C16.161 28.9251 15.9169 27.4187 15.2045 26.017C14.3935 24.4209 13.0827 23.6105 11.3108 23.5482C9.45399 23.4829 7.98258 24.1687 7.04999 25.8348C6.30782 27.1607 6.04315 28.6123 5.91731 30.1969Z" fill="#F5A523"/>
<path d="M37.3046 32.233C37.2081 29.763 37.4852 27.4048 38.4913 25.1687C39.9828 21.8536 42.5965 20.0318 46.149 19.5029C48.1617 19.2032 50.1737 19.2588 52.1118 19.9353C55.6617 21.1743 57.6001 23.7694 58.0711 27.4159C58.3008 29.1936 58.2471 31.0078 58.324 32.8605C53.0816 32.8605 47.9631 32.8605 42.7814 32.8605C42.864 34.0128 43.1403 35.0498 43.5938 36.0507C45.0576 39.2807 49.1692 39.544 51.0921 37.8216C51.7252 37.2544 52.1594 36.5708 52.4625 35.7863C52.519 35.64 52.676 35.4253 52.7891 35.4239C54.5282 35.4007 56.2676 35.4077 58.1013 35.4077C57.9722 35.8842 57.8839 36.3047 57.745 36.7078C56.5005 40.3195 53.098 42.8659 49.2692 43.0918C47.4081 43.2016 45.5859 43.0518 43.8279 42.4019C40.366 41.1221 38.5219 38.4858 37.7066 35.03C37.4947 34.1322 37.4349 33.1988 37.3046 32.233ZM52.1008 25.6391C51.185 24.0738 49.7706 23.4911 48.0126 23.5397C45.366 23.6129 42.9618 26.0649 43.0082 28.6913C46.2931 28.6913 49.5785 28.6913 52.8844 28.6913C52.8314 27.6235 52.6303 26.6286 52.1008 25.6391Z" fill="#F5A523"/>
<path d="M24.3093 36.4009C24.3093 30.8217 24.3093 25.2932 24.3093 19.7045C26.1449 19.7045 27.9403 19.7045 29.794 19.7045C29.794 20.2982 29.794 20.8925 29.794 21.612C29.9708 21.3985 30.0708 21.2942 30.1522 21.177C31.1516 19.7393 32.6229 19.3156 34.2649 19.3184C34.8671 19.3195 35.4722 19.4311 36.0685 19.5346C36.2027 19.5579 36.4062 19.7566 36.4081 19.8773C36.4315 21.3557 36.4233 22.8347 36.4233 24.2352C35.6116 24.2352 34.8918 24.243 34.1722 24.2337C32.1977 24.2082 30.8802 25.2632 29.8871 26.8343C29.7904 26.9873 29.7965 27.2204 29.7963 27.4163C29.7917 32.2563 29.7927 37.0962 29.7927 41.9361C29.7927 42.1341 29.7927 42.3321 29.7927 42.5618C27.955 42.5618 26.1707 42.5618 24.3093 42.5618C24.3093 40.5192 24.3093 38.4853 24.3093 36.4009Z" fill="#F5A623"/>
<path d="M92.931 12.1201C92.2494 15.0624 91.5603 17.9615 90.9122 20.8697C90.4191 23.0824 89.2305 23.793 87.0707 23.0933C86.7826 23 86.4984 22.8865 86.2262 22.7542C84.9981 22.157 84.6117 21.2959 84.9511 19.982C85.7637 16.8364 86.5767 13.6908 87.3739 10.5412C87.5348 9.9055 87.6049 9.24718 87.7587 8.6093C87.8602 8.18791 87.9842 7.75613 88.1897 7.37863C88.6551 6.52403 89.5988 6.14353 90.525 6.43465C91.5407 6.75385 92.4209 7.31834 93.145 8.09981C93.5882 8.5782 93.7223 9.18017 93.5823 9.79818C93.4081 10.5679 93.1584 11.3206 92.931 12.1201Z" fill="#F5A523"/>
<path d="M104.191 24.9564C105.041 24.4328 105.848 23.9058 106.687 23.4373C107.033 23.2444 107.441 23.1398 107.835 23.0632C108.246 22.983 108.54 23.301 108.427 23.7013C108.333 24.0356 108.2 24.3839 107.993 24.658C104.785 28.9087 101.372 32.9858 97.4752 36.631C96.7973 37.2652 95.9333 37.7074 95.1308 38.1985C94.9652 38.2999 94.6147 38.3118 94.4887 38.2036C94.3752 38.1062 94.3721 37.7477 94.4589 37.5726C95.2363 36.0046 95.9546 34.3974 96.8621 32.9057C98.7592 29.7875 101.236 27.1693 104.191 24.9564Z" fill="#13111A"/>
<path d="M76.1432 36.157C74.7993 39.1319 71.8127 39.2494 69.8805 38.4908C68.4401 37.9253 67.6788 36.7242 67.2678 35.3239C66.4497 32.5375 66.4568 29.7274 67.3693 26.9651C68.2853 24.1927 70.6492 22.9677 73.4005 23.7476C74.499 24.059 75.3012 24.7448 75.8634 25.7196C76.6584 27.0983 76.9413 28.6121 77.0113 30.1767C77.1023 32.2112 76.9974 34.2196 76.1432 36.157Z" fill="#13111A"/>
<path d="M5.918 30.1489C6.04299 28.6123 6.30766 27.1607 7.04983 25.8348C7.98243 24.1687 9.45384 23.4829 11.3107 23.5482C13.0826 23.6105 14.3934 24.4209 15.2044 26.017C15.9167 27.4187 16.1608 28.9251 16.2076 30.4683C16.2686 32.487 16.1378 34.4822 15.2236 36.3418C14.3757 38.0663 12.956 38.8814 11.0616 38.8721C9.13948 38.8627 7.67333 38.0657 6.82524 36.2849C6.16693 34.9026 5.93394 33.4298 5.90323 31.917C5.89159 31.344 5.91158 30.7703 5.918 30.1489Z" fill="#13111A"/>
<path d="M52.1187 25.6724C52.6303 26.6287 52.8315 27.6236 52.8844 28.6914C49.5785 28.6914 46.2932 28.6914 43.0082 28.6914C42.9618 26.0651 45.3661 23.613 48.0127 23.5399C49.7706 23.4913 51.185 24.0739 52.1187 25.6724Z" fill="#13111A"/>
</g>
<defs>
<clipPath id="clip0_19_142">
<rect width="129" height="51" fill="white"/>
</clipPath>
</defs>
</svg>
